<?xml version="1.0" standalone="no"?>
<!DOCTYPE svg PUBLIC "-//W3C//DTD SVG 20010904//EN"
 "http://www.w3.org/TR/2001/REC-SVG-20010904/DTD/svg10.dtd">
<svg version="1.0" xmlns="http://www.w3.org/2000/svg"
 width="700.000000pt" height="700.000000pt" viewBox="0 0 700.000000 700.000000"
 preserveAspectRatio="xMidYMid meet">
<metadata>
Created by potrace 1.14, written by Peter Selinger 2001-2017
</metadata>
<g transform="translate(0.000000,700.000000) scale(0.100000,-0.100000)"
fill="#000000" stroke="none">
<path d="M1710 6409 c-36 -4 -110 -18 -165 -30 -584 -124 -1081 -514 -1346
-1054 -148 -302 -208 -603 -196 -980 6 -202 29 -349 80 -526 25 -87 36 -113
47 -109 8 3 372 7 807 10 785 5 793 5 813 26 12 11 121 261 244 555 122 294
230 548 239 565 22 43 101 112 154 136 133 59 312 11 392 -106 16 -22 171
-359 344 -748 174 -388 333 -741 353 -785 l36 -78 292 582 c312 623 321 638
421 691 44 23 62 27 145 27 79 0 103 -4 142 -23 93 -46 113 -76 303 -448 97
-192 186 -358 196 -369 19 -20 34 -20 948 -23 l929 -2 20 67 c61 202 82 332
89 558 12 377 -48 678 -196 980 -99 201 -196 339 -356 504 -287 296 -618 475
-1041 562 -145 30 -458 37 -618 15 -345 -49 -660 -180 -941 -394 -33 -25 -124
-109 -202 -186 l-143 -140 -142 140 c-79 77 -170 161 -203 186 -279 212 -596
345 -934 392 -120 17 -397 20 -511 5z"/>
<path d="M2441 3671 c-46 -110 -102 -228 -127 -265 -106 -158 -257 -267 -443
-319 -73 -21 -100 -22 -729 -27 l-652 -5 122 -121 c253 -250 2540 -2376 2591
-2408 103 -65 158 -80 297 -80 112 0 132 2 194 27 37 15 92 44 121 64 53 39
2489 2309 2624 2446 l75 76 -780 3 c-774 4 -779 4 -852 26 -209 64 -372 194
-474 379 l-34 61 -297 -594 c-322 -644 -332 -660 -436 -711 -74 -37 -200 -40
-272 -7 -66 31 -126 89 -159 153 -15 31 -173 378 -349 771 -177 393 -326 718
-330 723 -4 4 -44 -82 -90 -192z"/>
</g>
</svg>
